<?xml version="1.0" encoding="utf-8"?>
<!-- Generator: Adobe Illustrator 19.0.0, SVG Export Plug-In . SVG Version: 6.00 Build 0)  -->
<svg version="1.1" id="Layer_1" xmlns="http://www.w3.org/2000/svg" xmlns:xlink="http://www.w3.org/1999/xlink" x="0px" y="0px"
	 viewBox="0 0 69 97.4" style="enable-background:new 0 0 69 97.4;" xml:space="preserve">
<style type="text/css">
	.st0{fill:#131313;}
	.st1{fill:#1572B6;}
	.st2{fill:#33A9DC;}
	.st3{fill:#FFFFFF;}
	.st4{fill:#EBEBEB;}
</style>
<g id="XMLID_1_">
	<title>Slice 1</title>
	<description>Created with Sketch (http://www.bohemiancoding.com/sketch)</description>
	<g id="Page_1_1_">
		<g id="Layer_1_2_">
			<path id="Shape_15_" class="st0" d="M54.1,3.6h-5.7l6,6.5v3.1H42V9.5h6l-6-6.5V0h12V3.6L54.1,3.6z M39.6,3.6h-5.7l6,6.5v3.1H27.6
				V9.5h6l-6-6.5V0h12V3.6L39.6,3.6z M25.3,3.8h-6.2v5.6h6.2v3.8H14.7V0h10.6V3.8L25.3,3.8z"/>
			<path id="Shape_14_" class="st1" d="M6.3,89.6L0,19.1h69l-6.3,70.4l-28.3,7.8L6.3,89.6z"/>
			<path id="Shape_13_" class="st2" d="M34.5,91.4l22.8-6.3l5.4-60.2H34.5V91.4z"/>
			<g id="Group_1_" transform="translate(55.000000, 142.000000)">
				<path id="Shape_12_" class="st3" d="M-20.5-91.6h11.4l0.8-8.8h-12.2v-8.6h0H1.2L1-106.7l-2.1,23.8h-19.3V-91.6z"/>
				<path id="Shape_11_" class="st4" d="M-20.4-69.1L-20.4-69.1l-9.7-2.6l-0.6-6.9h-4.7h-4l1.2,13.6l17.7,4.9l0,0V-69.1z"/>
				<path id="Shape_10_" class="st3" d="M-9.8-83.3l-1,11.6l-9.6,2.6v9L-2.8-65l0.1-1.5l1.5-16.8H-9.8z"/>
				<path id="Shape_9_" class="st4" d="M-20.5-109.1v5.4v3.3v0h-20.8h0l-0.2-1.9l-0.4-4.4l-0.2-2.3H-20.5z"/>
				<path id="Shape_8_" class="st4" d="M-20.5-91.6v5.4v3.3v0H-30h0l-0.2-1.9l-0.4-4.4l-0.2-2.3H-20.5z"/>
			</g>
		</g>
	</g>
</g>
</svg>
