<?xml version="1.0" encoding="utf-8"?>
<!-- Generator: Adobe Illustrator 19.0.0, SVG Export Plug-In . SVG Version: 6.00 Build 0)  -->
<svg version="1.1" id="Layer_1" xmlns="http://www.w3.org/2000/svg" xmlns:xlink="http://www.w3.org/1999/xlink" x="0px" y="0px"
	 viewBox="0 0 186.3 262.9" style="enable-background:new 0 0 186.3 262.9;" xml:space="preserve">
<style type="text/css">
	.st0{fill:#E44F26;}
	.st1{fill:#F1662A;}
	.st2{fill:#EBEBEB;}
	.st3{fill:#010101;}
	.st4{fill:#FFFFFF;}
</style>
<g id="XMLID_14_">
	<title>Slice 1</title>
	<description>Created with Sketch (http://www.bohemiancoding.com/sketch)</description>
	<g id="Page_1_1_">
		<g id="Group_1_">
			<path id="Shape_19_" class="st0" d="M17,241.8L0,51.7h186.3l-17,190.1L93,262.9L17,241.8z"/>
			<path id="Shape_18_" class="st1" d="M93.1,246.7l61.6-17.1l14.5-162.4H93.1V246.7z"/>
			<path id="Shape_17_" class="st2" d="M93.1,137.7H62.3l-2.1-23.9h33V90.5H93H34.7l0.6,6.3l5.7,64.3h52.2V137.7z"/>
			<path id="Shape_16_" class="st2" d="M93.1,198.3l-0.1,0l-26-7l-1.7-18.6H52.8H42l3.3,36.6L93,222.6l0.1,0V198.3z"/>
			<path id="Shape_15_" class="st3" d="M17.3,0h11.8v11.7H40V0h11.9v35.5H40V23.6H29.2v11.9H17.3V0L17.3,0z"/>
			<path id="Shape_14_" class="st3" d="M67.5,11.8H57V0h32.7v11.8H79.3v23.7H67.5L67.5,11.8L67.5,11.8L67.5,11.8z"/>
			<path id="Shape_13_" class="st3" d="M94.9,0h12.4l7.6,12.5L122.5,0h12.4v35.5H123V17.9l-8.2,12.6h-0.2l-8.2-12.6v17.6H94.9
				L94.9,0L94.9,0z"/>
			<path id="Shape_12_" class="st3" d="M140.7,0h11.9v23.7h16.7v11.7h-28.5L140.7,0L140.7,0z"/>
			<path id="Shape_11_" class="st4" d="M93,137.7V161h28.7l-2.7,30.2l-26,7v24.3l47.8-13.2l0.4-3.9l5.5-61.4l0.6-6.3H141H93z"/>
			<path id="Shape_10_" class="st4" d="M93,90.5V105v8.8v0.1h56.2h0.1l0.5-5.2l1.1-11.8l0.6-6.3H93z"/>
		</g>
	</g>
</g>
</svg>
