<?xml version="1.0" encoding="utf-8"?>
<!-- Generator: Adobe Illustrator 19.0.0, SVG Export Plug-In . SVG Version: 6.00 Build 0)  -->
<svg version="1.1" id="Layer_1" xmlns="http://www.w3.org/2000/svg" xmlns:xlink="http://www.w3.org/1999/xlink" x="0px" y="0px"
	 viewBox="0 0 69 97.4" style="enable-background:new 0 0 69 97.4;" xml:space="preserve">
<style type="text/css">
	.st0{fill:#E44D26;}
	.st1{fill:#F16529;}
	.st2{fill:#EBEBEB;}
	.st3{fill:#FFFFFF;}
</style>
<g id="XMLID_1_">
	<title>HTML5 Logo</title>
	<polygon id="XMLID_24_" class="st0" points="6.3,89.4 0.1,19.1 68.9,19.1 62.7,89.4 34.5,97.2 	"/>
	<polygon id="XMLID_23_" class="st1" points="34.5,91.2 57.3,84.9 62.6,24.8 34.5,24.8 	"/>
	<polygon id="XMLID_22_" class="st2" points="34.5,50.9 23.1,50.9 22.3,42.1 34.5,42.1 34.5,33.5 34.5,33.5 12.9,33.5 13.1,35.8 
		15.2,59.5 34.5,59.5 	"/>
	<polygon id="XMLID_21_" class="st2" points="34.5,73.3 34.5,73.3 24.9,70.7 24.3,63.8 19.6,63.8 15.6,63.8 16.8,77.4 34.5,82.3 
		34.5,82.3 	"/>
	<path id="XMLID_20_" d="M6.5,0h4.4v4.3h4V0h4.4v13.1h-4.4V8.7h-4v4.4H6.5L6.5,0L6.5,0z"/>
	<path id="XMLID_19_" d="M25,4.3h-3.9V0h12.1v4.3h-3.9v8.8H25L25,4.3L25,4.3z"/>
	<path id="XMLID_18_" d="M35.2,0h4.6l2.8,4.6L45.4,0h4.6v13.1h-4.4V6.6l-3,4.7h-0.1l-3-4.7v6.5h-4.3V0z"/>
	<path id="XMLID_4_" d="M52.1,0h4.4v8.8h6.2v4.3H52.1V0z"/>
	<polygon id="XMLID_3_" class="st3" points="34.5,50.9 34.5,59.5 45.1,59.5 44.1,70.7 34.5,73.3 34.5,82.3 52.1,77.4 52.3,75.9 
		54.3,53.2 54.5,50.9 52.2,50.9 	"/>
	<polygon id="XMLID_2_" class="st3" points="34.5,33.5 34.5,38.8 34.5,42.1 34.5,42.1 55.3,42.1 55.3,42.1 55.3,42.1 55.5,40.1 
		55.9,35.8 56.1,33.5 	"/>
</g>
</svg>
