<?xml version="1.0" encoding="utf-8"?>
<!-- Generator: Adobe Illustrator 19.0.0, SVG Export Plug-In . SVG Version: 6.00 Build 0)  -->
<svg version="1.1" id="Layer_1" xmlns="http://www.w3.org/2000/svg" xmlns:xlink="http://www.w3.org/1999/xlink" x="0px" y="0px"
	 viewBox="-374 175.7 250 50.3" style="enable-background:new -374 175.7 250 50.3;" xml:space="preserve">
<style type="text/css">
	.st0{fill:#ADADAD;}
	.st1{fill:#D8DADC;}
</style>
<path class="st0" d="M-276.8,188.2h0.1v1.3c0,0-1,0.1-1,0.1c-1.7,0.2-1.7,0.6-1.7,4.3v13.7c0,3.8,0,4.1,1.7,4.3c0,0,0.9,0.1,1,0.1
	v1.3h-10.5v-1.3c0,0,0.1,0,0.1,0c0.7-0.1,0.7-0.1,0.8-0.1c0.1,0,0.1,0,0.1,0c1.6-0.2,1.6-0.6,1.6-4.3v-6.4h-11.1v6.4
	c0,3.8,0,4.1,1.6,4.3c0,0,0.9,0.1,1,0.1v1.3h-10.5v-1.3c0,0,0.1,0,0.1,0c0.7-0.1,0.6-0.1,0.6-0.1c0.1,0,0.3,0,0.3,0
	c1.6-0.2,1.6-0.6,1.6-4.3V194c0-3.8,0-4.1-1.6-4.3c0,0-0.9-0.1-1-0.1v-1.3h10.5v1.3c0,0-0.1,0-0.1,0c-0.7,0.1-0.6,0.1-0.8,0.1
	c0,0-0.1,0-0.1,0c-1.6,0.2-1.6,0.6-1.6,4.3v5.4h11.1V194c0-3.8,0-4.1-1.6-4.3c0,0-0.9-0.1-1-0.1v-1.3
	C-287.2,188.3-276.8,188.3-276.8,188.2z M-235,188.3c0,0-0.1,0-0.1,0c0,0.4-1.3,20.8-1.3,20.8c-0.2,2.5-0.7,2.7-1.7,2.9
	c0,0-1.1,0.2-1.1,0.2v1.2h8.5v-1.3c-0.1,0-1.4-0.2-1.4-0.2c-1.4-0.3-1.8-0.4-1.8-2l0-0.8l0.4-12.5c0,0,8.4,16.8,8.4,16.8
	c0,0,0.1,0,0.1,0c0.5-0.1,0.9-0.2,1.5-0.4c0,0,0.1,0,0.1,0c0,0,7.7-16.3,7.7-16.3l0,0l0.5,12.4l0,0.6c0,1.9-0.4,1.9-1.8,2.2
	c0,0-1.3,0.2-1.4,0.2v1.3h10.9v-1.3c-0.1,0-1.3-0.2-1.3-0.2c-1-0.2-1.5-0.4-1.7-3.3c0,0-1.1-20.6-1.1-20.7h-0.1
	c-0.8,0-1.1,0-1.9,0.2c0,0-0.1,0-0.1,0c0,0-9.3,18.4-9.3,18.4l0,0c0,0-10-18.6-10-18.6l-0.2,0C-234,188.1-234.1,188.1-235,188.3
	 M-174,188.2v1.3c0.8,0.1,1,0.1,1,0.1l0.2,0c1.4,0.3,1.4,0.3,1.4,4.3v13.7c0,4,0,4-1.5,4.3c0,0-0.1,0-0.1,0c0,0-1,0.1-1,0.1v1.3
	h18.6c0,0,0-0.1,0-0.1c0.8-2.5,1.1-4.5,1.3-6.9c0,0,0-0.1,0-0.1c0,0-1.6-0.3-1.6-0.3c0,0.1-0.2,0.6-0.2,0.6
	c-0.7,2.6-1.3,5.1-6.6,5.1c-1.2,0-2.5-0.3-3.6-0.5l0,0v-9.8h2.6c3.2,0,3.6,0,3.8,1.5c0,0,0.2,1.3,0.2,1.3h1.3v-7.8h-1.3
	c0,0-0.2,1.4-0.2,1.4c-0.2,1.4-0.6,1.5-4,1.5h-2.4V190h2.6c3.9,0,5.1,0,6,4.7c0,0,0,0.1,0,0.1c0,0,1.6-0.2,1.6-0.2v-0.1
	c0-2,0-4.2-0.5-6.1c0,0,0-0.1,0-0.1h-0.1L-174,188.2L-174,188.2z M-252.4,189.5c0.1,0,1.1,0.1,1.1,0.1c1.7,0.2,1.9,0.3,2,2.7
	l0.2,9.8c0,1.5,0,2.6-0.2,3.9c-0.6,4.4-3.6,6-6.3,6c-4.2,0-7-2.7-7-6.8v-11.2c0-3.7,0-4.1,1.6-4.3c0,0,1-0.1,1-0.1v-1.3h-10.5v1.3
	c0.1,0,1,0.1,1,0.1c1.6,0.2,1.6,0.6,1.6,4.3v9.3c0,7.2,3.8,10.8,11.5,10.8c6.2,0,9.6-3.4,9.9-10.2l0.1-1.8c0,0,0,0,0.2-9.2
	c0-2.5,0.5-2.7,1.5-3c0,0,0.8-0.2,0.9-0.2c0,0,0-1.2,0-1.3h-8.6L-252.4,189.5z M-190.9,211.7c3.1,0,4.8-1.8,4.8-5
	c0-2.8-1.6-5.8-6.3-5.8h-1.4h0v10.2l0,0C-192.8,211.5-191.8,211.7-190.9,211.7 M-193.8,199.2h1.2c2.5,0,5.3-0.5,5.3-4.7
	c0-2.7-1.9-4.5-4.7-4.5c-0.6,0-1.2,0.1-1.8,0.2l0,0L-193.8,199.2L-193.8,199.2z M-186.9,199.7c1.4,0.3,6,1.5,6,6.5
	c0,4.7-3.8,7.2-10.8,7.2h-9.9v-1.3c0,0,1-0.1,1-0.1c0,0,0.2,0,0.2,0c1.5-0.3,1.5-0.3,1.5-4.3v-13.8c0-3.9,0-3.9-1.5-4.2l-0.1,0
	c0,0-0.9-0.1-1-0.1v-1.3h0.1h11.2c5.4,0,8.2,1.8,8.2,5.3C-182.1,196.5-183.7,198.5-186.9,199.7L-186.9,199.7L-186.9,199.7
	 M-138.1,200.9c5.3,0,5.3-4.3,5.3-5.7c0-3.2-2-5.3-5.2-5.3c-0.6,0-1.2,0.1-1.8,0.2l0,0v10.7H-138.1 M-124.2,212.1c0,0,0.2,0,0.2,0
	v1.3h-3.4c-3.7,0-5.3-2.2-6.2-4.1l-1.4-2.8l-0.7-1.4c-0.8-1.7-1.2-2.5-3-2.5h-1.1v5.1c0,3.8,0,4.1,1.6,4.3c0,0,0.9,0.1,1,0.1v1.3
	h-10.5v-1.3c0,0,0.1,0,0.1,0c0.7-0.1,0.7-0.1,0.8-0.1c0.1,0,0.2,0,0.2,0c1.6-0.2,1.6-0.6,1.6-4.3v-13.8c0-3.8,0-4.1-1.7-4.3
	c0,0-0.9-0.1-1-0.1v-1.3h0.1h10.9c4.2,0,9,0.7,9,6.4c0,3.8-3.3,5.8-4.8,6.5l0,0l0,0c0.8,1.8,3.4,6.8,5.9,10
	C-125.8,211.9-124.9,212.1-124.2,212.1"/>
<path class="st0" d="M-317.8,184.9c0,2-1.6,3.6-3.5,3.6c-2,0-3.6-1.6-3.6-3.6c0-2,1.6-3.6,3.6-3.6
	C-319.4,181.3-317.8,182.9-317.8,184.9"/>
<path class="st0" d="M-362,207.8v-19h5.5v14c3.9-3.2,8.2-6.2,12.5-8.7v-12h5.5v9c3.5-1.8,7-3.2,10.5-4.4c-4.5-6.6-12.2-11-20.8-11
	c-13.9,0-25.2,11.3-25.2,25.2c0,5.6,1.8,10.8,4.9,14.9C-366.9,213-364.6,210.3-362,207.8"/>
<path class="st1" d="M-327.6,187.4c-3.6,1.5-7.3,3.5-10.9,6v26.2h-5.5v-22c-7.6,6.4-14.4,14.9-18.6,24.3c4,2.6,8.7,4.1,13.8,4.1
	c13.9,0,25.2-11.3,25.2-25.2C-323.6,195.9-325.1,191.3-327.6,187.4"/>
</svg>
