<?xml version="1.0" encoding="utf-8"?>
<!-- Generator: Adobe Illustrator 19.0.0, SVG Export Plug-In . SVG Version: 6.00 Build 0)  -->
<svg version="1.1" id="Layer_1" xmlns="http://www.w3.org/2000/svg" xmlns:xlink="http://www.w3.org/1999/xlink" x="0px" y="0px"
	 viewBox="0 0 69 68.4" style="enable-background:new 0 0 69 68.4;" xml:space="preserve">
<style type="text/css">
	.st0{fill:#F7DF1E;}
</style>
<g id="XMLID_1_">
	<rect id="XMLID_18_" class="st0" width="69" height="68.4"/>
	<path id="XMLID_2_" d="M46.4,53.4c1.4,2.2,3.2,3.9,6.4,3.9c2.7,0,4.4-1.3,4.4-3.2c0-2.2-1.8-3-4.7-4.3l-1.6-0.7
		c-4.7-2-7.8-4.4-7.8-9.7c0-4.8,3.7-8.5,9.5-8.5c4.1,0,7.1,1.4,9.2,5.1l-5,3.2c-1.1-2-2.3-2.8-4.2-2.8c-1.9,0-3.1,1.2-3.1,2.8
		c0,1.9,1.2,2.7,4,3.9L55,44c5.5,2.3,8.6,4.7,8.6,10.1c0,5.8-4.6,9-10.7,9c-6,0-9.9-2.8-11.8-6.6L46.4,53.4z M23.4,54
		c1,1.8,1.9,3.3,4.2,3.3c2.1,0,3.5-0.8,3.5-4V31.4h6.5v21.9c0,6.7-3.9,9.7-9.7,9.7c-5.2,0-8.2-2.7-9.7-5.9L23.4,54z"/>
</g>
</svg>
