<?xml version="1.0" encoding="utf-8"?>
<!-- Generator: Adobe Illustrator 19.0.0, SVG Export Plug-In . SVG Version: 6.00 Build 0)  -->
<svg version="1.1" id="Layer_1" xmlns="http://www.w3.org/2000/svg" xmlns:xlink="http://www.w3.org/1999/xlink" x="0px" y="0px"
	 viewBox="0 0 262.9 262.9" style="enable-background:new 0 0 262.9 262.9;" xml:space="preserve">
<style type="text/css">
	.st0{fill:#F7DF1E;}
</style>
<g id="XMLID_14_">
	<rect id="XMLID_18_" class="st0" width="262.9" height="262.9"/>
	<path id="XMLID_15_" d="M176.6,205.4c5.3,8.6,12.2,15,24.4,15c10.2,0,16.8-5.1,16.8-12.2c0-8.5-6.7-11.5-18-16.4l-6.2-2.6
		c-17.8-7.6-29.7-17.1-29.7-37.2c0-18.5,14.1-32.6,36.2-32.6c15.7,0,27,5.5,35.1,19.8L216,151.4c-4.2-7.6-8.8-10.6-15.9-10.6
		c-7.2,0-11.8,4.6-11.8,10.6c0,7.4,4.6,10.4,15.2,15l6.2,2.6c21,9,32.8,18.2,32.8,38.8c0,22.2-17.5,34.4-40.9,34.4
		c-22.9,0-37.8-10.9-45-25.3L176.6,205.4z M89.3,207.5c3.9,6.9,7.4,12.7,15.9,12.7c8.1,0,13.2-3.2,13.2-15.5v-84h24.7v84.3
		c0,25.6-15,37.2-36.9,37.2c-19.8,0-31.2-10.2-37.1-22.6L89.3,207.5z"/>
</g>
</svg>
