<?xml version="1.0" encoding="utf-8"?>
<!-- Generator: Adobe Illustrator 19.0.0, SVG Export Plug-In . SVG Version: 6.00 Build 0)  -->
<svg version="1.1" id="Layer_1" xmlns="http://www.w3.org/2000/svg" xmlns:xlink="http://www.w3.org/1999/xlink" x="0px" y="0px"
	 viewBox="-295.9 109.3 405.6 182.7" style="enable-background:new -295.9 109.3 405.6 182.7;" xml:space="preserve">
<style type="text/css">
	.st0{fill:url(#path19_2_);}
	.st1{fill:#F6F6F6;}
	.st2{fill:#F6F6F6;stroke:#404040;stroke-width:5.1509;stroke-miterlimit:10;}
</style>
<g>
	<g id="XMLID_27_">
		<g id="XMLID_28_">
			<g id="layer1_1_" transform="translate(130.53125,-317.84375)">
				
					<linearGradient id="path19_2_" gradientUnits="userSpaceOnUse" x1="-5.3927" y1="326.6721" x2="-5.3927" y2="149.272" gradientTransform="matrix(1 0 0 -1 -216.7386 756.517)">
					<stop  offset="0.1497" style="stop-color:#2A4F84"/>
					<stop  offset="0.3884" style="stop-color:#294E82"/>
					<stop  offset="1" style="stop-color:#172E4E"/>
				</linearGradient>
				<path id="path19_1_" class="st0" d="M-44.1,573c0,18.9-15.4,34.2-34.2,34.2h-287.8c-18.9,0-34.2-15.4-34.2-34.2V464
					c0-18.9,15.4-34.2,34.2-34.2h287.9c18.9,0,34.2,15.4,34.2,34.2L-44.1,573L-44.1,573z"/>
				<path id="path21_1_" class="st1" d="M-104.3,516.3c15,5.2,22.6,14.2,22.6,27c0,8.4-3.2,15-9.4,19.9s-15,8-26.6,8
					s-22.2-3.4-32-8.8c0.1-2.9,0.9-6.1,2.3-9.6c1.4-3.5,3.1-6.2,5-8.3c9,4.7,16.9,7,23.7,7c3.2,0,5.6-0.5,7.3-1.5
					c1.7-1.1,2.5-2.5,2.5-4.3c0-3.4-2.6-5.9-7.7-7.5l-9.4-3.6c-14.2-5.1-21.3-13.5-21.3-25.2c0-8.5,2.9-15.3,8.8-20.3
					c5.9-5,14-9.3,24-9.3c5,0,10.5,0.7,16.5,2.1s10.9,4.8,14.7,6.8c0.2,3.2-0.4,6.5-1.9,10.4c-1.5,3.7-3.3,6.4-5.5,8
					c-9.5-4.3-17.4-6.4-23.8-6.4c-2.3,0-3.9,0.4-5.2,1.5c-1.2,1-1.7,2.3-1.7,3.9c0,2.6,2.1,4.8,6.4,6.4L-104.3,516.3L-104.3,516.3z"
					/>
				<path id="path23_1_" class="st1" d="M-179.4,516.3c15,5.2,22.6,14.3,22.6,27c0,8.4-3.2,15-9.4,19.9s-15,8-26.6,8
					s-22.2-3.4-32-8.8c0.1-2.9,0.9-6.1,2.3-9.6c1.4-3.5,3.1-6.2,5-8.3c9,4.7,16.9,7,23.7,7c3.2,0,5.6-0.5,7.3-1.5
					c1.7-1.1,2.5-2.5,2.5-4.3c0-3.4-2.6-5.9-7.7-7.5l-9.4-3.6c-14.2-5.1-21.3-13.5-21.3-25.2c0-8.5,2.9-15.3,8.9-20.3
					c5.9-5,14-9.3,24-9.3c5,0,10.5,0.7,16.5,2.1s10.9,4.8,14.7,6.8c0.2,3.2-0.4,6.5-1.9,10.4c-1.5,3.7-3.3,6.4-5.5,8
					c-9.5-4.3-17.4-6.4-23.8-6.4c-2.3,0-3.9,0.4-5.2,1.5c-1.2,1-1.7,2.3-1.7,3.9c0,2.6,2.1,4.8,6.4,6.4L-179.4,516.3L-179.4,516.3z"
					/>
				<path id="path25_1_" class="st1" d="M-234.2,517.5c0-5.1-0.9-9.9-2.5-14.3s-3.9-8.1-7-11.2s-6.8-5.6-11.1-7.4
					c-4.4-1.7-9.3-4.5-14.7-4.5c-6.4,0-12.1,2.9-16.9,5.2c-4.8,2.3-8.7,5.3-11.9,9.3c-3.2,3.9-5.5,8.5-7,13.8
					c-1.5,5.3-2.3,11.1-2.3,17.4c0,6.4,0.7,12.5,1.9,18s3.4,10.2,6.3,14.3c3.1,4,6.9,7.2,11.8,9.4c4.8,2.3,10.8,3.9,17.9,3.9
					c13.1,0,24.2-3.8,33.2-10.1c-0.9-6.4-3.2-11.7-6.9-15.5c-4.7,1.7-8.7,3.1-12.3,3.7c-3.6,0.8-6.6,1.2-9.4,1.2
					c-5.3,0-9.3-1.4-11.7-4.1c-2.4-2.8-3.7-6.1-3.9-11h44C-235,530.6-234.2,524.3-234.2,517.5z M-280.7,518.7
					c0.3-5.8,1.4-11.8,3.2-14.3c1.7-2.5,4.4-3.7,8-3.7c3.7,0,6.4,1.4,8.3,4c1.9,2.6,2.8,8.1,2.8,12.2v1.9h-22.2L-280.7,518.7
					L-280.7,518.7z"/>
				<path id="path27_1_" class="st2" d="M-35.2,529.8c-4.8,4.1-7.5,10.2-7.5,18.1v29.3c0,9.8-3.1,17.2-9.8,22.2
					c-6.8,5.1-14.7,7.6-23.7,7.8l-5.3-0.1v-14.6c4.7-1.4,6.6-2.9,8.5-4.8c3.4-3.1,6-8.1,6-14.9v-23.7c0.1-8.1,0.8-14.3,3.7-18.9
					c2.9-4.6,8.7-8.5,17.2-12c-9.4-4.3-15.7-9.9-18.9-16.9c-2-4.1-2-9.7-2-16.7v-21.7c0-7.2-2.3-12.2-5.2-15c-2-1.9-4.1-3.4-9.3-4.5
					v-13.7c6.3,0.1,9.6,0,13.3,0c5.8-0.1,10.5,3.1,14.6,6.3c4.5,3.6,7.7,8.4,9.6,14.5c1.1,3.5,1.2,6.9,1.2,10v25.2
					c0,8.8,2.6,15.5,7.1,19.8c2.5,2.5,6.1,4.8,12.2,6.9v11.3C-28.9,525.2-32.2,527.2-35.2,529.8L-35.2,529.8z"/>
				<path id="path29_1_" class="st2" d="M-372.6,429.8L-372.6,429.8c-1.9,0-3.5,0-4.8,0c-5.8-0.1-10.5,3.1-14.6,6.3
					c-4.5,3.6-8.4,8.2-9.6,14.5c-0.7,3.7-0.5,6.9-0.5,10v25.1c0,8.8-3.3,15.5-7.7,19.8c-2.5,2.5-8,4.8-14.1,6.9v11.3
					c5.5,1.5,10.7,3.6,13.6,6.1c4.8,4.1,8.3,10.2,8.3,18.1v29.3c0,9.8,2.3,17.2,9,22.2c6.8,5.1,14.7,7.6,23.7,7.8l6-0.1v-14.6
					c-4.7-1.4-7.3-3.1-9.3-4.8c-3.4-3.1-5.3-8.1-5.3-14.9v-23.7c-0.1-8.1-1.4-14.3-4.4-18.9c-2.9-4.6-8.7-8.5-17.2-12
					c9.4-4.3,15.7-9.9,18.9-16.9c2-4.1,2.6-9.7,2.6-16.7v-21.7c0-7.2,1.6-12.2,4.6-15c1.5-1.5,4.4-2.8,8.2-3.9l6.1,0.1
					c0-5.2,0-8.5,0-14.4L-372.6,429.8L-372.6,429.8L-372.6,429.8L-372.6,429.8z"/>
				<path id="path31_1_" class="st1" d="M-316.2,548.8h-4.6c-5,0-6.9-2.6-6.9-7.8v-96.7c0-5.8-1.7-9.9-3.8-12.2s-5.9-2.3-11.2-2.3
					h-10.4h-1.2v0.1v14.4v101.5c0,8.1,1.9,14,5,17.8c3.2,3.7,8.7,5.6,16.4,5.6c5.3,0,11.4-0.5,18.2-1.7c0.3-1.2,0.4-3.6,0.4-7.3
					S-314.8,552.6-316.2,548.8L-316.2,548.8z"/>
			</g>
		</g>
	</g>
</g>
</svg>
