<?xml version="1.0" encoding="utf-8"?>
<!-- Generator: Adobe Illustrator 19.0.0, SVG Export Plug-In . SVG Version: 6.00 Build 0)  -->
<svg version="1.1" id="Layer_1" xmlns="http://www.w3.org/2000/svg" xmlns:xlink="http://www.w3.org/1999/xlink" x="0px" y="0px"
	 viewBox="0 0 373.3 168.1" style="enable-background:new 0 0 373.3 168.1;" xml:space="preserve">
<style type="text/css">
	.st0{fill:url(#path19_1_);}
	.st1{fill:#F6F6F6;}
	.st2{fill:#F6F6F6;stroke:#404040;stroke-width:5.1509;stroke-miterlimit:10;}
</style>
<g id="XMLID_15_">
	<g id="XMLID_16_">
		<g id="layer1_2_" transform="translate(130.53125,-317.84375)">
			
				<linearGradient id="path19_1_" gradientUnits="userSpaceOnUse" x1="247.9276" y1="471.6212" x2="247.9276" y2="308.7257" gradientTransform="matrix(1 0 0 -1 -191.7892 791.466)">
				<stop  offset="0.1497" style="stop-color:#2A4F84"/>
				<stop  offset="0.3884" style="stop-color:#294E82"/>
				<stop  offset="1" style="stop-color:#172E4E"/>
			</linearGradient>
			<path id="path19_2_" class="st0" d="M219.5,451.3c0,17.3-14.1,31.4-31.4,31.4h-264c-17.3,0-31.4-14.1-31.4-31.4v-100
				c0-17.3,14.1-31.4,31.4-31.4h264.1c17.3,0,31.4,14.1,31.4,31.4L219.5,451.3L219.5,451.3z"/>
			<path id="path21_2_" class="st1" d="M164.3,399.2C178.1,404,185,412.2,185,424c0,7.7-2.9,13.8-8.6,18.3
				c-5.7,4.5-13.8,7.3-24.4,7.3s-20.4-3.1-29.4-8.1c0.1-2.7,0.8-5.6,2.1-8.8s2.8-5.7,4.6-7.6c8.3,4.3,15.5,6.4,21.7,6.4
				c2.9,0,5.1-0.5,6.7-1.4c1.6-1,2.3-2.3,2.3-3.9c0-3.1-2.4-5.4-7.1-6.9l-8.6-3.3c-13-4.7-19.5-12.4-19.5-23.1
				c0-7.8,2.7-14,8.1-18.6c5.4-4.6,12.8-8.5,22-8.5c4.6,0,9.6,0.6,15.1,1.9c5.5,1.3,10,4.4,13.5,6.2c0.2,2.9-0.4,6-1.7,9.5
				c-1.4,3.4-3,5.9-5,7.3c-8.7-3.9-16-5.9-21.8-5.9c-2.1,0-3.6,0.4-4.8,1.4c-1.1,0.9-1.6,2.1-1.6,3.6c0,2.4,1.9,4.4,5.9,5.9
				L164.3,399.2L164.3,399.2z"/>
			<path id="path23_2_" class="st1" d="M95.4,399.2c13.8,4.8,20.7,13.1,20.7,24.8c0,7.7-2.9,13.8-8.6,18.3
				c-5.7,4.5-13.8,7.3-24.4,7.3s-20.4-3.1-29.4-8.1c0.1-2.7,0.8-5.6,2.1-8.8c1.3-3.2,2.8-5.7,4.6-7.6c8.3,4.3,15.5,6.4,21.7,6.4
				c2.9,0,5.1-0.5,6.7-1.4c1.6-1,2.3-2.3,2.3-3.9c0-3.1-2.4-5.4-7.1-6.9l-8.6-3.3c-13-4.7-19.5-12.4-19.5-23.1
				c0-7.8,2.7-14,8.2-18.6c5.4-4.6,12.8-8.5,22-8.5c4.6,0,9.6,0.6,15.1,1.9c5.5,1.3,10,4.4,13.5,6.2c0.2,2.9-0.4,6-1.7,9.5
				c-1.4,3.4-3,5.9-5,7.3c-8.7-3.9-16-5.9-21.8-5.9c-2.1,0-3.6,0.4-4.8,1.4c-1.1,0.9-1.6,2.1-1.6,3.6c0,2.4,1.9,4.4,5.9,5.9
				L95.4,399.2L95.4,399.2z"/>
			<path id="path25_2_" class="st1" d="M45.1,400.3c0-4.7-0.8-9.1-2.3-13.1c-1.5-4-3.6-7.4-6.4-10.3c-2.8-2.9-6.2-5.1-10.2-6.8
				c-4-1.6-8.5-4.1-13.5-4.1c-5.9,0-11.1,2.7-15.5,4.8c-4.4,2.1-8,4.9-10.9,8.5c-2.9,3.6-5,7.8-6.4,12.7c-1.4,4.9-2.1,10.2-2.1,16
				c0,5.9,0.6,11.5,1.7,16.5c1.1,5,3.1,9.4,5.8,13.1c2.8,3.7,6.3,6.6,10.8,8.6c4.4,2.1,9.9,3.6,16.4,3.6c12,0,22.2-3.5,30.5-9.3
				c-0.8-5.9-2.9-10.7-6.3-14.2c-4.3,1.6-8,2.8-11.3,3.4c-3.3,0.7-6.1,1.1-8.6,1.1c-4.9,0-8.5-1.3-10.7-3.8
				c-2.2-2.6-3.4-5.6-3.6-10.1h40.4C44.4,412.4,45.1,406.6,45.1,400.3z M2.5,401.4c0.3-5.3,1.3-10.8,2.9-13.1c1.6-2.3,4-3.4,7.3-3.4
				c3.4,0,5.9,1.3,7.6,3.7c1.7,2.4,2.6,7.4,2.6,11.2v1.7H2.5L2.5,401.4L2.5,401.4z"/>
			<path id="path27_2_" class="st2" d="M227.7,411.6c-4.4,3.8-6.9,9.4-6.9,16.6v26.9c0,9-2.8,15.8-9,20.4c-6.2,4.7-13.5,7-21.7,7.2
				l-4.9-0.1v-13.4c4.3-1.3,6.1-2.7,7.8-4.4c3.1-2.8,5.5-7.4,5.5-13.7v-21.7c0.1-7.4,0.7-13.1,3.4-17.3c2.7-4.2,8-7.8,15.8-11
				c-8.6-3.9-14.4-9.1-17.3-15.5c-1.8-3.8-1.8-8.9-1.8-15.3v-19.9c0-6.6-2.1-11.2-4.8-13.8c-1.8-1.7-3.8-3.1-8.5-4.1v-12.6
				c5.8,0.1,8.8,0,12.2,0c5.3-0.1,9.6,2.8,13.4,5.8c4.1,3.3,7.1,7.7,8.8,13.3c1,3.2,1.1,6.3,1.1,9.2v23c0,8.1,2.4,14.2,6.5,18.2
				c2.3,2.3,5.6,4.4,11.2,6.3V406C233.5,407.4,230.4,409.2,227.7,411.6L227.7,411.6z"/>
			<path id="path29_2_" class="st2" d="M-81.8,319.9L-81.8,319.9c-1.7,0-3.2,0-4.4,0c-5.3-0.1-9.6,2.8-13.4,5.8
				c-4.1,3.3-7.7,7.5-8.8,13.3c-0.6,3.4-0.5,6.3-0.5,9.2v23c0,8.1-3,14.2-7.1,18.2c-2.3,2.3-7.3,4.4-12.9,6.3V406
				c5,1.4,9.8,3.3,12.5,5.6c4.4,3.8,7.6,9.4,7.6,16.6v26.9c0,9,2.1,15.8,8.3,20.4c6.2,4.7,13.5,7,21.7,7.2l5.5-0.1v-13.4
				c-4.3-1.3-6.7-2.8-8.5-4.4c-3.1-2.8-4.9-7.4-4.9-13.7v-21.7c-0.1-7.4-1.3-13.1-4-17.3c-2.7-4.2-8-7.8-15.8-11
				c8.6-3.9,14.4-9.1,17.3-15.5c1.8-3.8,2.4-8.9,2.4-15.3v-19.9c0-6.6,1.5-11.2,4.2-13.8c1.4-1.4,4-2.6,7.5-3.6l5.6,0.1
				c0-4.8,0-7.8,0-13.2L-81.8,319.9L-81.8,319.9L-81.8,319.9L-81.8,319.9z"/>
			<path id="path31_2_" class="st1" d="M-30.1,429.1h-4.2c-4.6,0-6.3-2.4-6.3-7.2v-88.7c0-5.3-1.6-9.1-3.5-11.2
				c-1.9-2.1-5.4-2.1-10.3-2.1h-9.5h-1.1v0.1v13.2v93.1c0,7.4,1.7,12.8,4.6,16.3c2.9,3.4,8,5.1,15,5.1c4.9,0,10.5-0.5,16.7-1.6
				c0.3-1.1,0.4-3.3,0.4-6.7S-28.8,432.5-30.1,429.1L-30.1,429.1z"/>
		</g>
	</g>
</g>
</svg>
