<?xml version="1.0" encoding="utf-8"?>
<!-- Generator: Adobe Illustrator 19.0.0, SVG Export Plug-In . SVG Version: 6.00 Build 0)  -->
<svg version="1.1"
	 id="svg3059" xmlns:svg="http://www.w3.org/2000/svg" xmlns:dc="http://purl.org/dc/elements/1.1/" xmlns:rdf="http://www.w3.org/1999/02/22-rdf-syntax-ns#" xmlns:cc="http://creativecommons.org/ns#"
	 xmlns="http://www.w3.org/2000/svg" xmlns:xlink="http://www.w3.org/1999/xlink" x="0px" y="0px" viewBox="861.5 14.6 70.8 71.2"
	 style="enable-background:new 861.5 14.6 70.8 71.2;" xml:space="preserve">
<style type="text/css">
	.st0{fill:#F7DF1E;}
</style>
<g>
	<g id="XMLID_3_">
		<rect id="XMLID_5_" x="861.5" y="14.6" class="st0" width="70.8" height="71.2"/>
		<path id="XMLID_4_" d="M909.1,70.2c1.4,2.3,3.3,4.1,6.6,4.1c2.8,0,4.5-1.4,4.5-3.3c0-2.3-1.8-3.1-4.8-4.5l-1.6-0.7
			c-4.8-2.1-8-4.6-8-10.1c0-5,3.8-8.9,9.7-8.9c4.2,0,7.3,1.5,9.4,5.3l-5.1,3.3c-1.1-2.1-2.4-2.9-4.3-2.9s-3.2,1.2-3.2,2.9
			c0,2,1.2,2.8,4.1,4.1l1.5,0.9c5.6,2.4,8.8,4.9,8.8,10.5c0,6-4.7,9.4-11,9.4c-6.2,0-10.2-2.9-12.1-6.9L909.1,70.2z M885.5,70.9
			c1,1.9,1.9,3.4,4.3,3.4c2.2,0,3.6-0.8,3.6-4.2V47.3h6.7v22.8c0,7-4,10.1-9.9,10.1c-5.3,0-8.4-2.8-9.9-6.1L885.5,70.9z"/>
	</g>
</g>
</svg>
