<?xml version="1.0" encoding="utf-8"?>
<!-- Generator: Adobe Illustrator 19.0.0, SVG Export Plug-In . SVG Version: 6.00 Build 0)  -->
<svg version="1.1" id="Layer_1" xmlns="http://www.w3.org/2000/svg" xmlns:xlink="http://www.w3.org/1999/xlink" x="0px" y="0px"
	 viewBox="-292.5 117 316.2 167.3" style="enable-background:new -292.5 117 316.2 167.3;" xml:space="preserve">
<style type="text/css">
	.st0{fill:#6C7EB7;}
	.st1{fill:none;stroke:url(#XMLID_2_);stroke-width:5.5;}
	.st2{fill:none;stroke:#FFFFFF;stroke-width:2;stroke-linejoin:round;}
</style>
<g id="XMLID_15_">
	<g id="p2_1_" transform="translate(134,0)">
		<g id="XMLID_84_">
			<g id="XMLID_87_">
				<path id="XMLID_100_" d="M-181.1,162.4c17,1.1,25.5,9.6,25.5,24.5c0,25.6-20.2,40.5-38.3,39.4H-213l-4.3,22.3h-20.2l17-86.2
					H-181.1z M-176.8,188c0-6.4-5.3-9.6-12.8-9.6h-13.8l-5.3,31.9h12.7C-186.4,209.2-177.9,206.1-176.8,188z"/>
				<path id="XMLID_99_" class="st0" d="M-189.6,178.4c7.5,0,12.8,3.2,12.8,9.6c-1.1,18.1-9.6,21.3-19.2,22.3h-12.8l5.3-31.9
					C-203.5,178.4-189.6,178.4-189.6,178.4z"/>
				<path id="XMLID_98_" d="M-252.4,162.4c17,1.1,23.4,9.6,21.3,20.2l-7.4,43.6h-21.3l7.5-39.4c1.1-5.3,1.1-8.5-6.4-8.5h-16
					l-9.6,47.9h-20.2l17-86.2h20.2l-4.3,22.3h19.2V162.4z"/>
				<path id="XMLID_93_" class="st0" d="M-298.1,186.9c0-14.9-8.5-23.4-25.5-24.5H-363l-17,86.2h20.2l4.2-22.3h19.2
					C-318.4,227.3-298.1,212.4-298.1,186.9z M-287.5,140.1l-17,86.2h20.2l9.6-47.9h16c7.4,0,7.4,3.2,6.4,8.5l-7.5,39.4h21.3
					l7.4-43.6c2.1-10.6-4.3-19.2-21.3-20.2h-19.2l4.3-22.3h-20.2V140.1z M-268.3,119.8c85.8,0,155.3,36.3,155.3,80.9
					s-69.6,80.9-155.4,80.9s-155.3-36.2-155.3-80.9S-354.2,119.8-268.3,119.8z M-155.5,186.9c0-14.9-8.5-23.4-25.5-24.5h-39.4
					l-17,86.2h20.2l4.3-22.3h19.2C-175.7,227.3-155.5,212.4-155.5,186.9z"/>
				<path id="XMLID_90_" d="M-298.1,186.9c0,25.6-20.2,40.5-38.3,39.4h-19.2l-4.2,22.3h-20.3l17-86.2h39.4
					C-306.6,163.5-298.1,172-298.1,186.9z M-319.4,188c0-6.4-5.3-9.6-12.8-9.6H-346l-5.3,31.9h12.8
					C-329,209.2-320.5,206.1-319.4,188z"/>
				<path id="XMLID_89_" class="st0" d="M-332.2,178.4c7.4,0,12.8,3.2,12.8,9.6c-1.1,18.1-9.6,21.3-19.2,22.3h-12.8l5.3-31.9
					C-346.1,178.4-332.2,178.4-332.2,178.4z"/>
			</g>
			<g id="XMLID_88_">
				
					<radialGradient id="XMLID_2_" cx="-478.2493" cy="263.4878" r="234.0424" gradientTransform="matrix(1 0 0 -0.9001 134 352.0959)" gradientUnits="userSpaceOnUse">
					<stop  offset="0" style="stop-color:#DDDCE9"/>
					<stop  offset="0.37" style="stop-color:#5664A3"/>
					<stop  offset="1" style="stop-color:#000000"/>
				</radialGradient>
				<path id="XMLID_108_" class="st1" d="M-268.3,119.8c85.8,0,155.3,36.3,155.3,80.9s-69.6,80.9-155.4,80.9s-155.3-36.2-155.3-80.9
					S-354.2,119.8-268.3,119.8z"/>
				<path id="XMLID_107_" class="st2" d="M-380.1,248.6l17-86.2h39.4c17,1.1,25.5,9.6,25.5,24.5c0,25.6-20.2,40.5-38.3,39.4h-19.2
					l-4.2,22.3H-380.1z"/>
				<path id="XMLID_106_" class="st2" d="M-351.3,210.3l5.3-31.9h13.8c7.4,0,12.8,3.2,12.8,9.6c-1.1,18.1-9.6,21.3-19.2,22.3
					C-338.6,210.3-351.3,210.3-351.3,210.3z"/>
				<path id="XMLID_105_" class="st2" d="M-304.5,226.3l17-86.2h20.2l-4.3,22.3h19.2c17,1.1,23.4,9.6,21.3,20.2l-7.4,43.6h-21.3
					l7.5-39.4c1.1-5.3,1.1-8.5-6.4-8.5h-16l-9.6,47.9h-20.2V226.3z"/>
				<path id="XMLID_104_" class="st2" d="M-237.5,248.6l17-86.2h39.4c17,1.1,25.5,9.6,25.5,24.5c0,25.6-20.2,40.5-38.3,39.4H-213
					l-4.3,22.3H-237.5z"/>
				<path id="XMLID_103_" class="st2" d="M-208.7,210.3l5.3-31.9h13.8c7.5,0,12.8,3.2,12.8,9.6c-1.1,18.1-9.6,21.3-19.2,22.3
					C-196,210.3-208.7,210.3-208.7,210.3z"/>
			</g>
		</g>
	</g>
</g>
</svg>
