<?xml version="1.0" encoding="utf-8"?>
<!-- Generator: Adobe Illustrator 19.0.0, SVG Export Plug-In . SVG Version: 6.00 Build 0)  -->
<svg version="1.1" id="Layer_1" xmlns="http://www.w3.org/2000/svg" xmlns:xlink="http://www.w3.org/1999/xlink" x="0px" y="0px"
	 viewBox="76.4 108.4 355.6 187.1" style="enable-background:new 76.4 108.4 355.6 187.1;" xml:space="preserve">
<style type="text/css">
	.st0{fill:#CD6799;}
	.st1{fill:#6C7EB7;}
	.st2{fill:none;stroke:url(#XMLID_26_);stroke-width:3.9526;}
	.st3{fill:none;stroke:#FFFFFF;stroke-width:1.4373;stroke-linejoin:round;}
</style>
<g id="XMLID_14_">
	<path id="XMLID_21_" class="st0" d="M-15.9,220.2c-12.2,0.1-22.9,3-31.8,7.4c-3.3-6.5-6.5-12.2-7.1-16.5c-0.6-4.9-1.4-7.9-0.6-13.8
		s4.2-14.3,4.2-14.9c-0.1-0.6-0.8-3.6-7.8-3.7c-7-0.1-13.1,1.3-13.8,3.2c-0.7,1.9-2,6.1-2.9,10.4c-1.2,6.4-14.1,29.3-21.5,41.2
		c-2.4-4.7-4.4-8.8-4.9-12c-0.6-4.9-1.4-7.9-0.6-13.8c0.8-5.9,4.2-14.3,4.2-14.9c-0.1-0.6-0.8-3.6-7.8-3.7c-7-0.1-13.1,1.3-13.8,3.2
		c-0.7,1.9-1.5,6.2-2.9,10.4c-1.5,4.2-18.6,42.4-23.1,52.3c-2.3,5.1-4.3,9.1-5.7,11.8l0,0c0,0-0.1,0.2-0.3,0.5
		c-1.2,2.4-1.9,3.6-1.9,3.6s0,0,0,0.1c-1,1.7-2,3.3-2.5,3.3c-0.4,0-1.1-4.6,0.1-10.9c2.6-13.3,8.6-33.9,8.6-34.6c0-0.4,1.2-4-4-5.8
		c-5-1.9-6.8,1.2-7.2,1.2s-0.8,1.1-0.8,1.1s5.6-23.2-10.6-23.2c-10.1,0-24.1,11.1-31,21.1c-4.4,2.4-13.6,7.4-23.6,12.9
		c-3.8,2.1-7.7,4.2-11.3,6.2c-0.3-0.3-0.5-0.6-0.8-0.8c-19.6-20.9-55.8-35.7-54.3-63.8c0.6-10.2,4.1-37.1,69.6-69.8
		c53.9-26.6,96.8-19.2,104.2-2.9c10.6,23.3-23,66.6-78.7,72.9c-21.3,2.4-32.4-5.8-35.2-8.9c-2.9-3.2-3.4-3.4-4.5-2.8
		c-1.8,1-0.6,3.8,0,5.5c1.7,4.4,8.5,12,20.1,15.8c10.2,3.3,35.2,5.2,65.3-6.5c33.7-13.1,60.1-49.4,52.4-79.8
		c-7.7-30.9-59-41-107.4-23.8c-28.9,10.3-60.2,26.4-82.6,47.4c-26.7,25-30.9,46.7-29.2,55.8c6.2,32.3,50.7,53.3,68.5,68.8
		c-0.9,0.5-1.7,1-2.4,1.3c-8.9,4.4-42.8,22.2-51.3,40.9c-9.6,21.3,1.5,36.5,8.9,38.5c22.9,6.3,46.4-5.1,59-23.9
		c12.6-18.8,11.1-43.3,5.3-54.5c-0.1-0.1-0.1-0.3-0.3-0.4c2.3-1.3,4.7-2.8,7-4.1c4.5-2.7,9-5.2,12.9-7.2c-2.2,6-3.8,13.1-4.5,23.3
		c-1,12,4,27.7,10.4,33.8c2.9,2.7,6.3,2.8,8.5,2.8c7.6,0,10.9-6.3,14.7-13.7c4.6-9.1,8.8-19.7,8.8-19.7s-5.2,28.6,8.9,28.6
		c5.1,0,10.3-6.7,12.6-10.1c0,0.1,0,0.1,0,0.1s0.1-0.2,0.4-0.6c0.5-0.8,0.8-1.3,0.8-1.3v-0.1c2-3.6,6.7-11.7,13.5-25.2
		c8.8-17.4,17.4-39.2,17.4-39.2s0.8,5.3,3.4,14.2c1.5,5.2,4.7,10.9,7.3,16.4c-2,2.9-3.3,4.5-3.3,4.5s0,0,0.1,0.1
		c-1.7,2.2-3.5,4.5-5.4,6.9c-7,8.3-15.3,17.9-16.5,20.6c-1.3,3.3-1,5.6,1.5,7.6c1.9,1.4,5.2,1.6,8.6,1.4c6.3-0.4,10.7-2,12.9-2.9
		c3.4-1.2,7.4-3.1,11.1-5.8c6.9-5.1,11-12.3,10.6-21.8c-0.2-5.3-1.9-10.5-4-15.4c0.6-0.9,1.2-1.8,1.9-2.7
		c10.8-15.8,19.2-33.2,19.2-33.2s0.8,5.3,3.4,14.2c1.3,4.5,3.9,9.3,6.2,14.1c-10.2,8.3-16.5,17.9-18.7,24.1
		c-4,11.7-0.9,16.9,5.1,18.1c2.7,0.6,6.5-0.7,9.3-1.9c3.6-1.2,7.8-3.1,11.8-6.1c6.9-5.1,13.4-12.1,13.1-21.6
		c-0.2-4.4-1.3-8.6-2.9-12.8c8.6-3.6,19.8-5.6,34-3.9c30.5,3.6,36.5,22.6,35.3,30.6s-7.6,12.4-9.7,13.7c-2.1,1.3-2.8,1.8-2.6,2.8
		c0.3,1.4,1.3,1.3,3.1,1.1c2.5-0.4,16-6.5,16.6-21.2C33.7,240.6,15.8,220-15.9,220.2z M-251,299.5c-10.1,11-24.2,15.2-30.3,11.7
		c-6.5-3.8-4-20,8.5-31.7c7.6-7.1,17.3-13.7,23.8-17.7c1.5-0.9,3.6-2.2,6.3-3.8c0.4-0.3,0.7-0.4,0.7-0.4l0,0c0.5-0.3,1-0.6,1.5-1
		C-236.1,273.3-240.4,287.9-251,299.5z M-177.4,249.4c-3.5,8.6-10.9,30.5-15.4,29.3c-3.8-1-6.2-17.7-0.8-34.1
		c2.8-8.3,8.6-18.1,12-22c5.5-6.1,11.6-8.2,13.1-5.7C-166.6,220.2-175.2,244.1-177.4,249.4z M-116.6,278.5c-1.5,0.8-2.9,1.3-3.5,0.9
		c-0.4-0.3,0.6-1.3,0.6-1.3s7.6-8.2,10.6-11.9c1.7-2.2,3.8-4.7,6-7.6c0,0.3,0,0.6,0,0.8C-102.9,269.2-112.4,275.8-116.6,278.5z
		 M-69.8,267.8c-1.1-0.8-0.9-3.3,2.8-11.3c1.4-3.1,4.7-8.4,10.4-13.4c0.6,2,1.1,4,1,5.9C-55.6,261.3-64.4,265.9-69.8,267.8z"/>
	<g id="XMLID_20_">
	</g>
	<g id="XMLID_19_">
	</g>
	<g id="XMLID_18_">
	</g>
	<g id="XMLID_17_">
	</g>
	<g id="XMLID_16_">
	</g>
	<g id="XMLID_15_">
	</g>
</g>
<g>
	<g id="XMLID_2_">
		<g id="p2_2_" transform="translate(134,0)">
			<g id="XMLID_3_">
				<g id="XMLID_11_">
					<path id="XMLID_25_" d="M218.9,158.6c19.2,1.2,28.9,10.9,28.9,27.7c0,29-22.9,45.8-43.4,44.6h-21.6l-4.9,25.2h-22.9l19.2-97.6
						H218.9z M223.8,187.6c0-7.2-6-10.9-14.5-10.9h-15.6l-6,36.1h14.4C212.9,211.6,222.5,208.1,223.8,187.6z"/>
					<path id="XMLID_24_" class="st1" d="M209.3,176.7c8.5,0,14.5,3.6,14.5,10.9c-1.2,20.5-10.9,24.1-21.7,25.2h-14.5l6-36.1
						C193.6,176.7,209.3,176.7,209.3,176.7z"/>
					<path id="XMLID_23_" d="M138.2,158.6c19.2,1.2,26.5,10.9,24.1,22.9l-8.4,49.3h-24.1l8.5-44.6c1.2-6,1.2-9.6-7.2-9.6H113
						l-10.9,54.2H79.2l19.2-97.6h22.9l-4.9,25.2h21.7L138.2,158.6L138.2,158.6z"/>
					<path id="XMLID_22_" class="st1" d="M86.5,186.4c0-16.9-9.6-26.5-28.9-27.7H13l-19.2,97.6h22.9l4.8-25.2h21.7
						C63.5,232.1,86.5,215.2,86.5,186.4z M98.5,133.4l-19.2,97.6h22.9l10.9-54.2h18.1c8.4,0,8.4,3.6,7.2,9.6l-8.5,44.6H154l8.4-49.3
						c2.4-12-4.9-21.7-24.1-22.9h-21.7l4.9-25.2H98.5L98.5,133.4L98.5,133.4z M120.2,110.4c97.1,0,175.8,41.1,175.8,91.6
						s-78.8,91.6-175.9,91.6s-175.8-41-175.8-91.6S23,110.4,120.2,110.4z M247.9,186.4c0-16.9-9.6-26.5-28.9-27.7h-44.6l-19.2,97.6
						h22.9l4.9-25.2h21.7C225,232.1,247.9,215.2,247.9,186.4z"/>
					<path id="XMLID_13_" d="M86.5,186.4c0,29-22.9,45.8-43.4,44.6H21.4l-4.8,25.2h-23l19.2-97.6h44.6
						C76.9,159.9,86.5,169.5,86.5,186.4z M62.4,187.6c0-7.2-6-10.9-14.5-10.9H32.3l-6,36.1h14.5C51.5,211.6,61.1,208.1,62.4,187.6z"
						/>
					<path id="XMLID_12_" class="st1" d="M47.9,176.7c8.4,0,14.5,3.6,14.5,10.9c-1.2,20.5-10.9,24.1-21.7,25.2H26.2l6-36.1
						C32.2,176.7,47.9,176.7,47.9,176.7z"/>
				</g>
				<g id="XMLID_4_">
					
						<radialGradient id="XMLID_26_" cx="-25.6964" cy="175.6846" r="262.7556" gradientTransform="matrix(1 0 0 0.9001 60.5 -52.1873)" gradientUnits="userSpaceOnUse">
						<stop  offset="0" style="stop-color:#DDDCE9"/>
						<stop  offset="0.37" style="stop-color:#5664A3"/>
						<stop  offset="1" style="stop-color:#000000"/>
					</radialGradient>
					<path id="XMLID_10_" class="st2" d="M120.2,110.4c97.1,0,175.8,41.1,175.8,91.6s-78.8,91.6-175.9,91.6s-175.8-41-175.8-91.6
						S23,110.4,120.2,110.4z"/>
					<path id="XMLID_9_" class="st3" d="M-6.3,256.2l19.2-97.6h44.6c19.2,1.2,28.9,10.9,28.9,27.7c0,29-22.9,45.8-43.4,44.6H21.3
						l-4.8,25.2L-6.3,256.2L-6.3,256.2z"/>
					<path id="XMLID_8_" class="st3" d="M26.3,212.8l6-36.1h15.6c8.4,0,14.5,3.6,14.5,10.9c-1.2,20.5-10.9,24.1-21.7,25.2
						C40.7,212.8,26.3,212.8,26.3,212.8z"/>
					<path id="XMLID_7_" class="st3" d="M79.2,230.9l19.2-97.6h22.9l-4.9,25.2h21.7c19.2,1.2,26.5,10.9,24.1,22.9l-8.4,49.3h-24.1
						l8.5-44.6c1.2-6,1.2-9.6-7.2-9.6H113l-10.9,54.2H79.2L79.2,230.9L79.2,230.9z"/>
					<path id="XMLID_6_" class="st3" d="M155.1,256.2l19.2-97.6h44.6c19.2,1.2,28.9,10.9,28.9,27.7c0,29-22.9,45.8-43.4,44.6h-21.6
						l-4.9,25.2L155.1,256.2L155.1,256.2z"/>
					<path id="XMLID_5_" class="st3" d="M187.7,212.8l6-36.1h15.6c8.5,0,14.5,3.6,14.5,10.9c-1.2,20.5-10.9,24.1-21.7,25.2
						C202.1,212.8,187.7,212.8,187.7,212.8z"/>
				</g>
			</g>
		</g>
	</g>
</g>
</svg>
