<?xml version="1.0" encoding="utf-8"?>
<!-- Generator: Adobe Illustrator 19.0.0, SVG Export Plug-In . SVG Version: 6.00 Build 0)  -->
<svg version="1.1" id="Layer_1" xmlns="http://www.w3.org/2000/svg" xmlns:xlink="http://www.w3.org/1999/xlink" x="0px" y="0px"
	 viewBox="0 0 356.5 262.9" style="enable-background:new 0 0 356.5 262.9;" xml:space="preserve">
<style type="text/css">
	.st0{fill:#CD6799;}
</style>
<g id="XMLID_14_">
	<path id="XMLID_21_" class="st0" d="M305.1,151.1c-12.2,0.1-22.9,3-31.8,7.4c-3.3-6.5-6.5-12.2-7.1-16.5c-0.6-4.9-1.4-7.9-0.6-13.8
		c0.8-5.9,4.2-14.3,4.2-14.9c-0.1-0.6-0.8-3.6-7.8-3.7c-7-0.1-13.1,1.3-13.8,3.2c-0.7,1.9-2,6.1-2.9,10.4
		c-1.2,6.4-14.1,29.3-21.5,41.2c-2.4-4.7-4.4-8.8-4.9-12c-0.6-4.9-1.4-7.9-0.6-13.8c0.8-5.9,4.2-14.3,4.2-14.9
		c-0.1-0.6-0.8-3.6-7.8-3.7c-7-0.1-13.1,1.3-13.8,3.2c-0.7,1.9-1.5,6.2-2.9,10.4c-1.5,4.2-18.6,42.4-23.1,52.3
		c-2.3,5.1-4.3,9.1-5.7,11.8l0,0c0,0-0.1,0.2-0.3,0.5c-1.2,2.4-1.9,3.6-1.9,3.6s0,0,0,0.1c-1,1.7-2,3.3-2.5,3.3
		c-0.4,0-1.1-4.6,0.1-10.9c2.6-13.3,8.6-33.9,8.6-34.6c0-0.4,1.2-4-4-5.8c-5-1.9-6.8,1.2-7.2,1.2c-0.4,0-0.8,1.1-0.8,1.1
		s5.6-23.2-10.6-23.2c-10.1,0-24.1,11.1-31,21.1c-4.4,2.4-13.6,7.4-23.6,12.9c-3.8,2.1-7.7,4.2-11.3,6.2c-0.3-0.3-0.5-0.6-0.8-0.8
		c-19.6-20.9-55.8-35.7-54.3-63.8c0.6-10.2,4.1-37.1,69.6-69.8c53.9-26.6,96.8-19.2,104.2-2.9c10.6,23.3-23,66.6-78.7,72.9
		c-21.3,2.4-32.4-5.8-35.2-8.9c-2.9-3.2-3.4-3.4-4.5-2.8c-1.8,1-0.6,3.8,0,5.5c1.7,4.4,8.5,12,20.1,15.8c10.2,3.3,35.2,5.2,65.3-6.5
		c33.7-13.1,60.1-49.4,52.4-79.8c-7.7-30.9-59-41-107.4-23.8C86.5,18.6,55.2,34.7,32.8,55.7c-26.7,25-30.9,46.7-29.2,55.8
		c6.2,32.3,50.7,53.3,68.5,68.8c-0.9,0.5-1.7,1-2.4,1.3c-8.9,4.4-42.8,22.2-51.3,40.9c-9.6,21.3,1.5,36.5,8.9,38.5
		c22.9,6.3,46.4-5.1,59-23.9s11.1-43.3,5.3-54.5c-0.1-0.1-0.1-0.3-0.3-0.4c2.3-1.3,4.7-2.8,7-4.1c4.5-2.7,9-5.2,12.9-7.2
		c-2.2,6-3.8,13.1-4.5,23.3c-1,12,4,27.7,10.4,33.8c2.9,2.7,6.3,2.8,8.5,2.8c7.6,0,10.9-6.3,14.7-13.7c4.6-9.1,8.8-19.7,8.8-19.7
		s-5.2,28.6,8.9,28.6c5.1,0,10.3-6.7,12.6-10.1c0,0.1,0,0.1,0,0.1s0.1-0.2,0.4-0.6c0.5-0.8,0.8-1.3,0.8-1.3s0-0.1,0-0.1
		c2-3.6,6.7-11.7,13.5-25.2c8.8-17.4,17.4-39.2,17.4-39.2s0.8,5.3,3.4,14.2c1.5,5.2,4.7,10.9,7.3,16.4c-2,2.9-3.3,4.5-3.3,4.5
		s0,0,0.1,0.1c-1.7,2.2-3.5,4.5-5.4,6.9c-7,8.3-15.3,17.9-16.5,20.6c-1.3,3.3-1,5.6,1.5,7.6c1.9,1.4,5.2,1.6,8.6,1.4
		c6.3-0.4,10.7-2,12.9-2.9c3.4-1.2,7.4-3.1,11.1-5.8c6.9-5.1,11-12.3,10.6-21.8c-0.2-5.3-1.9-10.5-4-15.4c0.6-0.9,1.2-1.8,1.9-2.7
		c10.8-15.8,19.2-33.2,19.2-33.2s0.8,5.3,3.4,14.2c1.3,4.5,3.9,9.3,6.2,14.1c-10.2,8.3-16.5,17.9-18.7,24.1
		c-4,11.7-0.9,16.9,5.1,18.1c2.7,0.6,6.5-0.7,9.3-1.9c3.6-1.2,7.8-3.1,11.8-6.1c6.9-5.1,13.4-12.1,13.1-21.6
		c-0.2-4.4-1.3-8.6-2.9-12.8c8.6-3.6,19.8-5.6,34-3.9c30.5,3.6,36.5,22.6,35.3,30.6c-1.2,8-7.6,12.4-9.7,13.7s-2.8,1.8-2.6,2.8
		c0.3,1.4,1.3,1.3,3.1,1.1c2.5-0.4,16-6.5,16.6-21.2C354.7,171.5,336.8,150.9,305.1,151.1z M70,230.4c-10.1,11-24.2,15.2-30.3,11.7
		c-6.5-3.8-4-20,8.5-31.7c7.6-7.1,17.3-13.7,23.8-17.7c1.5-0.9,3.6-2.2,6.3-3.8c0.4-0.3,0.7-0.4,0.7-0.4l0,0c0.5-0.3,1-0.6,1.5-1
		C84.9,204.2,80.6,218.8,70,230.4z M143.6,180.3c-3.5,8.6-10.9,30.5-15.4,29.3c-3.8-1-6.2-17.7-0.8-34.1c2.8-8.3,8.6-18.1,12-22
		c5.5-6.1,11.6-8.2,13.1-5.7C154.4,151.1,145.8,175,143.6,180.3z M204.4,209.4c-1.5,0.8-2.9,1.3-3.5,0.9c-0.4-0.3,0.6-1.3,0.6-1.3
		s7.6-8.2,10.6-11.9c1.7-2.2,3.8-4.7,6-7.6c0,0.3,0,0.6,0,0.8C218.1,200.1,208.6,206.7,204.4,209.4z M251.2,198.7
		c-1.1-0.8-0.9-3.3,2.8-11.3c1.4-3.1,4.7-8.4,10.4-13.4c0.6,2,1.1,4,1,5.9C265.4,192.2,256.6,196.8,251.2,198.7z"/>
	<g id="XMLID_20_">
	</g>
	<g id="XMLID_19_">
	</g>
	<g id="XMLID_18_">
	</g>
	<g id="XMLID_17_">
	</g>
	<g id="XMLID_16_">
	</g>
	<g id="XMLID_15_">
	</g>
</g>
</svg>
